<?xml version="1.0" encoding="UTF-8"?>
<svg id="Layer_1" data-name="Layer 1" xmlns="http://www.w3.org/2000/svg" viewBox="0 0 1970.87 2000">
  <defs>
    <style>
      .cls-1 {
        fill: #d0d0d0;
        stroke-width: 0px;
      }
    </style>
  </defs>
  <path class="cls-1" d="M1970.44,1002.99c0,39.88-3.97,79.01-11.94,117.38-7.51,38.38-19.45,74.77-35.9,109.16-15.95,34.89-36.64,67.04-62.07,96.45h-90.46c22.44-30.9,41.11-64.05,56.08-99.44,15.44-34.89,27.15-71.28,35.12-109.16,7.97-38.38,11.98-76.76,11.98-115.14s-4.01-78.26-11.98-116.64c-7.97-38.38-19.68-75.51-35.12-111.4-14.97-35.89-33.91-69.28-56.82-100.19h91.2c25.43,29.91,46.12,62.55,62.07,97.94,16.45,35.39,28.39,72.52,35.9,111.4,7.97,38.88,11.94,78.75,11.94,119.63Z"/>
  <path class="cls-1" d="M1699.27,1207.85h-593.64v-523.37h185.4v383.55h408.24v139.81Z"/>
  <path class="cls-1" d="M834.32,1002.99c0-40.87,3.73-80.75,11.2-119.63,7.97-38.88,20.18-76.01,36.64-111.4,16.45-35.39,37.14-68.04,62.07-97.94h91.2c-22.44,30.9-41.38,64.3-56.82,100.19-15.44,35.89-27.19,73.02-35.16,111.4-7.97,38.38-11.94,77.26-11.94,116.64s3.97,76.76,11.94,115.14c7.97,37.88,19.45,74.27,34.42,109.16,15.44,35.39,34.38,68.53,56.82,99.44h-90.46c-24.93-29.41-45.62-61.56-62.07-96.45-16.45-34.39-28.66-70.78-36.64-109.16-7.47-38.38-11.2-77.51-11.2-117.38Z"/>
  <path class="cls-1" d="M397.45,1215.33h-53.08c-174.21,0-317.76-21.68-343.93-158.5h198.88c15.7,32.15,60.56,39.63,184.67,39.63,131.59,0,169.72-10.47,170.47-48.6v-3.74c0-23.93-12.71-35.14-65.05-36.64l-242.24-8.22c-177.95-5.98-228.79-44.86-228.79-144.3v-7.48c0-131.59,97.94-170.47,334.96-170.47h37.38c171.96,0,314.02,22.43,341.68,165.23h-199.63c-13.46-35.89-59.06-46.36-169.72-46.36-127.1,0-155.51,13.46-155.51,46.36v1.49c0,23.93,11.96,35.14,65.05,37.38l240,7.48c178.69,6.73,228.79,44.11,228.79,139.81v5.98c0,143.55-103.18,180.93-343.93,180.93Z"/>
</svg>